<mxfile host="app.diagrams.net" agent="Mozilla/5.0 (Windows NT 10.0; Win64; x64) AppleWebKit/537.36 (KHTML, like Gecko) Chrome/134.0.0.0 Safari/537.36" version="26.1.1">
  <diagram name="Page-1" id="M5iGo13uAzK2L-ScgNZb">
    <mxGraphModel dx="1035" dy="551" grid="1" gridSize="10" guides="1" tooltips="1" connect="1" arrows="1" fold="1" page="1" pageScale="1" pageWidth="850" pageHeight="1100" math="0" shadow="0">
      <root>
        <mxCell id="0" />
        <mxCell id="1" parent="0" />
        <mxCell id="wx8XM6Fq-9PgXnbN3VG9-1" value="contents" style="rounded=1;whiteSpace=wrap;html=1;" vertex="1" parent="1">
          <mxGeometry x="50" y="110" width="120" height="60" as="geometry" />
        </mxCell>
        <mxCell id="wx8XM6Fq-9PgXnbN3VG9-2" value="file name" style="rounded=1;whiteSpace=wrap;html=1;" vertex="1" parent="1">
          <mxGeometry x="50" y="40" width="120" height="60" as="geometry" />
        </mxCell>
        <mxCell id="wx8XM6Fq-9PgXnbN3VG9-5" style="edgeStyle=orthogonalEdgeStyle;rounded=0;orthogonalLoop=1;jettySize=auto;html=1;entryX=0;entryY=0.5;entryDx=0;entryDy=0;" edge="1" parent="1" source="wx8XM6Fq-9PgXnbN3VG9-3" target="wx8XM6Fq-9PgXnbN3VG9-4">
          <mxGeometry relative="1" as="geometry" />
        </mxCell>
        <mxCell id="wx8XM6Fq-9PgXnbN3VG9-3" value="save button" style="rounded=1;whiteSpace=wrap;html=1;" vertex="1" parent="1">
          <mxGeometry x="50" y="180" width="80" height="30" as="geometry" />
        </mxCell>
        <mxCell id="wx8XM6Fq-9PgXnbN3VG9-10" style="edgeStyle=orthogonalEdgeStyle;rounded=0;orthogonalLoop=1;jettySize=auto;html=1;" edge="1" parent="1" source="wx8XM6Fq-9PgXnbN3VG9-4">
          <mxGeometry relative="1" as="geometry">
            <mxPoint x="320" y="195" as="targetPoint" />
          </mxGeometry>
        </mxCell>
        <mxCell id="wx8XM6Fq-9PgXnbN3VG9-4" value="isSubmitted" style="rounded=1;whiteSpace=wrap;html=1;" vertex="1" parent="1">
          <mxGeometry x="190" y="175" width="80" height="40" as="geometry" />
        </mxCell>
        <mxCell id="wx8XM6Fq-9PgXnbN3VG9-11" style="edgeStyle=orthogonalEdgeStyle;rounded=0;orthogonalLoop=1;jettySize=auto;html=1;entryX=1;entryY=0.5;entryDx=0;entryDy=0;" edge="1" parent="1" source="wx8XM6Fq-9PgXnbN3VG9-6" target="wx8XM6Fq-9PgXnbN3VG9-2">
          <mxGeometry relative="1" as="geometry">
            <Array as="points">
              <mxPoint x="385" y="70" />
            </Array>
          </mxGeometry>
        </mxCell>
        <mxCell id="wx8XM6Fq-9PgXnbN3VG9-12" style="edgeStyle=orthogonalEdgeStyle;rounded=0;orthogonalLoop=1;jettySize=auto;html=1;entryX=1;entryY=0.5;entryDx=0;entryDy=0;" edge="1" parent="1" source="wx8XM6Fq-9PgXnbN3VG9-6" target="wx8XM6Fq-9PgXnbN3VG9-1">
          <mxGeometry relative="1" as="geometry">
            <Array as="points">
              <mxPoint x="385" y="110" />
              <mxPoint x="210" y="110" />
              <mxPoint x="210" y="140" />
            </Array>
          </mxGeometry>
        </mxCell>
        <mxCell id="wx8XM6Fq-9PgXnbN3VG9-6" value="REQUEST" style="swimlane;whiteSpace=wrap;html=1;" vertex="1" parent="1">
          <mxGeometry x="320" y="150" width="130" height="100" as="geometry" />
        </mxCell>
        <mxCell id="wx8XM6Fq-9PgXnbN3VG9-8" value="GET Filename" style="text;html=1;align=center;verticalAlign=middle;resizable=0;points=[];autosize=1;strokeColor=none;fillColor=none;" vertex="1" parent="wx8XM6Fq-9PgXnbN3VG9-6">
          <mxGeometry x="10" y="30" width="100" height="30" as="geometry" />
        </mxCell>
        <mxCell id="wx8XM6Fq-9PgXnbN3VG9-50" style="edgeStyle=orthogonalEdgeStyle;rounded=0;orthogonalLoop=1;jettySize=auto;html=1;" edge="1" parent="wx8XM6Fq-9PgXnbN3VG9-6" source="wx8XM6Fq-9PgXnbN3VG9-9">
          <mxGeometry relative="1" as="geometry">
            <mxPoint x="160" y="140" as="targetPoint" />
          </mxGeometry>
        </mxCell>
        <mxCell id="wx8XM6Fq-9PgXnbN3VG9-9" value="GET Contents" style="text;html=1;align=center;verticalAlign=middle;resizable=0;points=[];autosize=1;strokeColor=none;fillColor=none;" vertex="1" parent="wx8XM6Fq-9PgXnbN3VG9-6">
          <mxGeometry x="10" y="60" width="100" height="30" as="geometry" />
        </mxCell>
        <mxCell id="wx8XM6Fq-9PgXnbN3VG9-19" value="" style="edgeStyle=orthogonalEdgeStyle;rounded=0;orthogonalLoop=1;jettySize=auto;html=1;" edge="1" parent="1" source="wx8XM6Fq-9PgXnbN3VG9-15" target="wx8XM6Fq-9PgXnbN3VG9-18">
          <mxGeometry relative="1" as="geometry" />
        </mxCell>
        <mxCell id="wx8XM6Fq-9PgXnbN3VG9-15" value="sanitize and modify extension" style="whiteSpace=wrap;html=1;" vertex="1" parent="1">
          <mxGeometry x="510" y="167.5" width="100" height="55" as="geometry" />
        </mxCell>
        <mxCell id="wx8XM6Fq-9PgXnbN3VG9-16" value="" style="edgeStyle=orthogonalEdgeStyle;rounded=0;orthogonalLoop=1;jettySize=auto;html=1;" edge="1" parent="1" source="wx8XM6Fq-9PgXnbN3VG9-8" target="wx8XM6Fq-9PgXnbN3VG9-15">
          <mxGeometry relative="1" as="geometry" />
        </mxCell>
        <mxCell id="wx8XM6Fq-9PgXnbN3VG9-39" value="" style="edgeStyle=orthogonalEdgeStyle;rounded=0;orthogonalLoop=1;jettySize=auto;html=1;" edge="1" parent="1" source="wx8XM6Fq-9PgXnbN3VG9-18" target="wx8XM6Fq-9PgXnbN3VG9-38">
          <mxGeometry relative="1" as="geometry" />
        </mxCell>
        <mxCell id="wx8XM6Fq-9PgXnbN3VG9-18" value="isFileName exist on list?" style="whiteSpace=wrap;html=1;" vertex="1" parent="1">
          <mxGeometry x="670" y="230" width="120" height="60" as="geometry" />
        </mxCell>
        <mxCell id="wx8XM6Fq-9PgXnbN3VG9-46" style="edgeStyle=orthogonalEdgeStyle;rounded=0;orthogonalLoop=1;jettySize=auto;html=1;exitX=0.5;exitY=1;exitDx=0;exitDy=0;entryX=0.5;entryY=0;entryDx=0;entryDy=0;" edge="1" parent="1" source="wx8XM6Fq-9PgXnbN3VG9-25" target="wx8XM6Fq-9PgXnbN3VG9-28">
          <mxGeometry relative="1" as="geometry" />
        </mxCell>
        <mxCell id="wx8XM6Fq-9PgXnbN3VG9-25" value="yes" style="rounded=1;whiteSpace=wrap;html=1;" vertex="1" parent="1">
          <mxGeometry x="660" y="440" width="60" height="30" as="geometry" />
        </mxCell>
        <mxCell id="wx8XM6Fq-9PgXnbN3VG9-44" style="edgeStyle=orthogonalEdgeStyle;rounded=0;orthogonalLoop=1;jettySize=auto;html=1;exitX=0.5;exitY=1;exitDx=0;exitDy=0;entryX=0.5;entryY=0;entryDx=0;entryDy=0;" edge="1" parent="1" source="wx8XM6Fq-9PgXnbN3VG9-26" target="wx8XM6Fq-9PgXnbN3VG9-30">
          <mxGeometry relative="1" as="geometry" />
        </mxCell>
        <mxCell id="wx8XM6Fq-9PgXnbN3VG9-26" value="no" style="rounded=1;whiteSpace=wrap;html=1;" vertex="1" parent="1">
          <mxGeometry x="750" y="420" width="50" height="30" as="geometry" />
        </mxCell>
        <mxCell id="wx8XM6Fq-9PgXnbN3VG9-28" value="file name = fileName" style="rounded=1;whiteSpace=wrap;html=1;" vertex="1" parent="1">
          <mxGeometry x="590" y="515" width="130" height="20" as="geometry" />
        </mxCell>
        <mxCell id="wx8XM6Fq-9PgXnbN3VG9-54" style="edgeStyle=orthogonalEdgeStyle;rounded=0;orthogonalLoop=1;jettySize=auto;html=1;entryX=0.5;entryY=1;entryDx=0;entryDy=0;" edge="1" parent="1" source="wx8XM6Fq-9PgXnbN3VG9-30" target="wx8XM6Fq-9PgXnbN3VG9-28">
          <mxGeometry relative="1" as="geometry">
            <Array as="points">
              <mxPoint x="775" y="570" />
              <mxPoint x="655" y="570" />
            </Array>
          </mxGeometry>
        </mxCell>
        <mxCell id="wx8XM6Fq-9PgXnbN3VG9-30" value="append file name json" style="rounded=1;whiteSpace=wrap;html=1;" vertex="1" parent="1">
          <mxGeometry x="730" y="485" width="90" height="50" as="geometry" />
        </mxCell>
        <mxCell id="wx8XM6Fq-9PgXnbN3VG9-40" style="edgeStyle=orthogonalEdgeStyle;rounded=0;orthogonalLoop=1;jettySize=auto;html=1;entryX=0.5;entryY=0;entryDx=0;entryDy=0;" edge="1" parent="1" source="wx8XM6Fq-9PgXnbN3VG9-38" target="wx8XM6Fq-9PgXnbN3VG9-25">
          <mxGeometry relative="1" as="geometry">
            <Array as="points">
              <mxPoint x="690" y="420" />
            </Array>
          </mxGeometry>
        </mxCell>
        <mxCell id="wx8XM6Fq-9PgXnbN3VG9-43" style="edgeStyle=orthogonalEdgeStyle;rounded=0;orthogonalLoop=1;jettySize=auto;html=1;entryX=0.5;entryY=0;entryDx=0;entryDy=0;" edge="1" parent="1" source="wx8XM6Fq-9PgXnbN3VG9-38" target="wx8XM6Fq-9PgXnbN3VG9-26">
          <mxGeometry relative="1" as="geometry">
            <Array as="points">
              <mxPoint x="775" y="360" />
            </Array>
          </mxGeometry>
        </mxCell>
        <mxCell id="wx8XM6Fq-9PgXnbN3VG9-38" value="decode json" style="rhombus;whiteSpace=wrap;html=1;" vertex="1" parent="1">
          <mxGeometry x="690" y="320" width="80" height="80" as="geometry" />
        </mxCell>
        <mxCell id="wx8XM6Fq-9PgXnbN3VG9-51" value="write contents to the file names" style="whiteSpace=wrap;html=1;aspect=fixed;" vertex="1" parent="1">
          <mxGeometry x="440" y="290" width="80" height="80" as="geometry" />
        </mxCell>
        <mxCell id="wx8XM6Fq-9PgXnbN3VG9-52" style="edgeStyle=orthogonalEdgeStyle;rounded=0;orthogonalLoop=1;jettySize=auto;html=1;entryX=0.177;entryY=0;entryDx=0;entryDy=0;entryPerimeter=0;" edge="1" parent="1" source="wx8XM6Fq-9PgXnbN3VG9-51" target="wx8XM6Fq-9PgXnbN3VG9-28">
          <mxGeometry relative="1" as="geometry" />
        </mxCell>
      </root>
    </mxGraphModel>
  </diagram>
</mxfile>
